<svg width="35" height="30" viewBox="0 0 47 41" fill="none" xmlns="http://www.w3.org/2000/svg">
<g clip-path="url(#clip0_401_23)">
<path d="M44.2262 4.49805V16.498H31.7381" stroke="white" stroke-width="4.16272" stroke-linecap="round" stroke-linejoin="round"/>
<path d="M39.0011 26.4943C37.6482 30.1741 35.0871 33.3316 31.7041 35.4912C28.321 37.6508 24.2992 38.6953 20.2447 38.4673C16.1901 38.2395 12.3225 36.7515 9.2246 34.2275C6.12672 31.7037 3.96639 28.2807 3.06922 24.4743C2.17202 20.6681 2.58657 16.6845 4.25037 13.1243C5.91419 9.56407 8.73712 6.61989 12.2938 4.73545C15.8504 2.85101 19.9481 2.12837 23.9693 2.67645C27.9907 3.22455 31.7176 5.01365 34.5886 7.77417L44.2253 16.4942" stroke="white" stroke-width="4.16272" stroke-linecap="round" stroke-linejoin="round"/>
</g>
<defs>
<clipPath id="clip0_401_23">
<rect width="45.7899" height="40" fill="white" transform="translate(0.518616 0.5)"/>
</clipPath>
</defs>
</svg>
